<svg id="Layer_1" data-name="Layer 1" xmlns="http://www.w3.org/2000/svg" viewBox="0 0 30 30"><defs><style>.cls-1{fill:#fff;}</style></defs><path class="cls-1" d="M24.35,6.5h0a21.87,21.87,0,0,0-5.5-1.7h-.1a9.14,9.14,0,0,0-.7,1.4,20.78,20.78,0,0,0-6.1,0,9.14,9.14,0,0,0-.7-1.4h-.1a20.51,20.51,0,0,0-5.5,1.6h0a23,23,0,0,0-4,15.3v.1a23.52,23.52,0,0,0,6.7,3.4h.1c.5-.7,1-1.5,1.4-2.2v-.1h0a20,20,0,0,1-2.1-1s-.1-.1,0-.1h0c.1-.1.3-.2.4-.3h.1a15.94,15.94,0,0,0,13.5,0h.1c.1.1.3.2.4.3v.1h0a20,20,0,0,1-2.1,1s-.1.1,0,.1h0a16.44,16.44,0,0,0,1.4,2.2h.1a21.21,21.21,0,0,0,6.7-3.4v-.1A23,23,0,0,0,24.35,6.5ZM10.45,18.7A2.57,2.57,0,0,1,8.05,16a2.57,2.57,0,0,1,2.4-2.7,2.51,2.51,0,0,1,2.4,2.7A2.45,2.45,0,0,1,10.45,18.7Zm9,0a2.57,2.57,0,0,1-2.4-2.7,2.57,2.57,0,0,1,2.4-2.7,2.51,2.51,0,0,1,2.4,2.7A2.57,2.57,0,0,1,19.45,18.7Z"/></svg>