<svg id="Layer_1" data-name="Layer 1" xmlns="http://www.w3.org/2000/svg" viewBox="0 0 30 30"><defs><style>.cls-1{fill:#fff;}.cls-2{fill:#ff5e5b;}</style></defs><g id="Layer_1-2" data-name="Layer 1-2"><g id="Layer_1-3" data-name="Layer 1-3"><path class="cls-1" d="M22.92,16a12.68,12.68,0,0,1-2,.09V9.68H22.3a2.67,2.67,0,0,1,2.22,1.06,3.17,3.17,0,0,1,.71,2A3,3,0,0,1,22.92,16Zm5.5-4.43a5.78,5.78,0,0,0-2.57-4A6.82,6.82,0,0,0,22,6.31H2.44a1.13,1.13,0,0,0-1,1.06v.27s-.09,8.6.09,13.3a2.92,2.92,0,0,0,2.93,2.75s9,0,13.21-.09h.62C20.8,23,21,20.68,21,19.43,25.85,19.61,29.31,16.15,28.42,11.54Z"/><path class="cls-2" d="M11,20c.27.08.35,0,.35,0s3.11-2.85,4.53-4.53c1.24-1.51,1.33-3.9-.8-4.88s-3.9,1.07-3.9,1.07a3.49,3.49,0,0,0-4.88-.53l-.09.09c-1.06,1.15-.71,3.1.09,4.16a54.1,54.1,0,0,0,4.52,4.44Z"/><path d="M11.22,20.05a.31.31,0,0,0,.26-.08s3.11-2.85,4.53-4.53c1.24-1.51,1.33-3.9-.8-4.88s-3.9,1.07-3.9,1.07a3.49,3.49,0,0,0-4.88-.53l-.09.09c-1.07,1.15-.71,3.1.09,4.16A56.3,56.3,0,0,0,11,19.88C11,20.05,11.13,20.05,11.22,20.05Z"/></g></g></svg>