<svg id="Layer_1" data-name="Layer 1" xmlns="http://www.w3.org/2000/svg" viewBox="0 0 30 30"><defs><style>.cls-1{fill:#fff;}</style></defs><path class="cls-1" d="M3.73,7.2V3.25a5.79,5.79,0,0,1,.72,0,21.68,21.68,0,0,1,15.89,6.92,21.65,21.65,0,0,1,5.71,11.31,20.11,20.11,0,0,1,.33,4.24c0,.23-.07.3-.3.29H22.42a17.93,17.93,0,0,0-5.31-13.41A17.8,17.8,0,0,0,3.73,7.2Z"/><path class="cls-1" d="M18.39,26h-4a10,10,0,0,0-2.95-7.74,9.9,9.9,0,0,0-7.75-3v-4C11.39,10.64,18.88,17.5,18.39,26Z"/><path class="cls-1" d="M10.36,22.6A3.38,3.38,0,1,1,7,19.22,3.38,3.38,0,0,1,10.36,22.6Z"/></svg>