<svg id="Layer_1" data-name="Layer 1" xmlns="http://www.w3.org/2000/svg" viewBox="0 0 30 30"><defs><style>.cls-1{fill:#fff;}</style></defs><path class="cls-1" d="M3.79,16.13c0-.79,0-1.59.12-2.39A8,8,0,0,1,5,10.56c.14-.25.3-.48.44-.72a.39.39,0,0,0,0-.52A.37.37,0,0,0,5,9.27a.88.88,0,0,1-.69.09.33.33,0,0,1-.18-.53,4.77,4.77,0,0,1,.59-.6.43.43,0,0,0,.16-.56c-.14-.37-.27-.75-.42-1.11a1.5,1.5,0,0,1,0-1.26A3.1,3.1,0,0,1,6,3.62c.81-.37,1.61-.76,2.43-1.11a2.8,2.8,0,0,1,2.43.06,1.64,1.64,0,0,1,.54.48c.26.35.48.74.72,1.1a.43.43,0,0,0,.53.22,6.55,6.55,0,0,1,.89-.1c.32,0,.42.2.25.46a1,1,0,0,1-.28.3.39.39,0,0,0-.19.45c.05.18.18.26.41.27.88,0,1.77,0,2.66.06a14.29,14.29,0,0,1,4,.64,13.17,13.17,0,0,1,3.23,1.66,6.39,6.39,0,0,1,2.65,4.3,20,20,0,0,1,.21,4.7c-.07.81-.09,1.62-.21,2.42a6.91,6.91,0,0,1-5.49,6,22.21,22.21,0,0,1-6.75.51c-.9-.05-1.81-.11-2.71-.19a8.3,8.3,0,0,1-4-1.44A7.93,7.93,0,0,1,3.9,19.33a11.34,11.34,0,0,1-.12-2.67c0-.17,0-.35,0-.53Zm12,1.22h0l-5.06.17a1.32,1.32,0,0,0-.39.06.26.26,0,0,0-.19.38,1.52,1.52,0,0,0,.18.33,6.26,6.26,0,0,0,4.95,3,6.09,6.09,0,0,0,4.56-1.41,4.91,4.91,0,0,0,1.44-2c.2-.54,0-.77-.55-.75ZM11,16.11a1.06,1.06,0,1,0-1-1.07A1.06,1.06,0,0,0,11,16.11Zm8.32-1.4a1,1,0,0,0,1,1.06,1.06,1.06,0,0,0,1.08-1,1.07,1.07,0,0,0-1-1.07A1.06,1.06,0,0,0,19.28,14.71Z"/><path d="M15.76,17.35l4.94-.17c.57,0,.75.21.55.75a4.91,4.91,0,0,1-1.44,2,6.09,6.09,0,0,1-4.56,1.41,6.26,6.26,0,0,1-4.95-3,1.52,1.52,0,0,1-.18-.33.26.26,0,0,1,.19-.38,1.32,1.32,0,0,1,.39-.06l5.06-.17Z"/><path d="M11,16.11a1.06,1.06,0,1,1,1.08-1A1.06,1.06,0,0,1,11,16.11Z"/><path d="M19.28,14.71a1.06,1.06,0,0,1,1.07-1.05,1.07,1.07,0,0,1,1,1.07,1.06,1.06,0,0,1-1.08,1A1,1,0,0,1,19.28,14.71Z"/></svg>