<svg id="Layer_1" data-name="Layer 1" xmlns="http://www.w3.org/2000/svg" viewBox="0 0 30 30"><defs><style>.cls-1{fill:#fff;}</style></defs><path class="cls-1" d="M10.4,12.68H8.06c0-.09,0-.16,0-.23V10a.3.3,0,0,1,.21-.35A5.28,5.28,0,0,0,11,7.33,10.31,10.31,0,0,0,12.22,4.7a1,1,0,0,0,0-.14C12.39,4,12.39,4,13,4H15c.31,0,.34,0,.34.35v5h5v3.3h-5V13c0,2.17,0,4.34,0,6.51,0,1.36.73,2,1.94,2.19a4.35,4.35,0,0,0,2.58-.42L21,20.75A2.26,2.26,0,0,1,21,21c0,.92,0,1.83,0,2.75a.36.36,0,0,1-.2.37,10,10,0,0,1-6.85.74,5.27,5.27,0,0,1-3.11-2.09,2.65,2.65,0,0,1-.51-1.63c0-2.71,0-5.43,0-8.14Z"/></svg>