<svg id="Layer_1" data-name="Layer 1" xmlns="http://www.w3.org/2000/svg" viewBox="0 0 30 30"><defs><style>.cls-1{fill:#fff;}</style></defs><path class="cls-1" d="M24.3,10.2v.6A13.66,13.66,0,0,1,3.2,22.3c.4,0,.8.1,1.2.1a10.53,10.53,0,0,0,6-2,4.74,4.74,0,0,1-4.5-3.3c.3,0,.6.1.9.1A5.85,5.85,0,0,0,8.1,17a4.74,4.74,0,0,1-3.8-4.7v-.1a4,4,0,0,0,2.2.6,4.75,4.75,0,0,1-2.1-4,4,4,0,0,1,.7-2.4,13.68,13.68,0,0,0,9.9,5,4.1,4.1,0,0,1-.1-1.1,4.8,4.8,0,0,1,4.8-4.8A4.91,4.91,0,0,1,23.2,7a7.89,7.89,0,0,0,3-1.2,4.91,4.91,0,0,1-2.1,2.6,12.76,12.76,0,0,0,2.8-.7A15.23,15.23,0,0,1,24.3,10.2Z"/></svg>